<svg xmlns:rdf="http://www.w3.org/1999/02/22-rdf-syntax-ns#" xmlns="http://www.w3.org/2000/svg" viewBox="0 0 65 20" height="20mm" width="65mm" version="1.1" xmlns:cc="http://creativecommons.org/ns#" xmlns:xlink="http://www.w3.org/1999/xlink" xmlns:dc="http://purl.org/dc/elements/1.1/">
 <metadata>
  <rdf:RDF>
   <cc:Work rdf:about="">
    <dc:format>image/svg+xml</dc:format>
    <dc:type rdf:resource="http://purl.org/dc/dcmitype/StillImage"/>
    <dc:title/>
   </cc:Work>
  </rdf:RDF>
 </metadata>
 <g fill="#fff">
  <g transform="translate(0,-277)">
   <g transform="translate(.033708 .20865)">
    <path id="rect4594" d="m6.9658 278.99h1.2v1.2h-1.2zm-1.3998-1.4v3.9998h3.9998v-3.9998zm0.79995 0.79995h2.3999v2.3998h-2.3999z" stroke-width=".26458" fill="#fff"/>
    <path id="rect4594-3" d="m10.366 277.59v3.9998h3.9998v-3.9998zm1.3999 0.79995h1.1999v2.3998h-0.59996v-1.7999h-0.59996z" stroke-width=".26458" fill="#fff"/>
    <g fill="#ffffff">
     <use xlink:href="#rect4594-3" transform="translate(-9.5995)" height="100%" width="100%" y="0" x="0"/>
     <use xlink:href="#rect4594-3" transform="translate(-4.7998 4.7998)" height="100%" width="100%" y="0" x="0"/>
     <use xlink:href="#rect4594-3" transform="translate(4.7998 4.7998)" height="100%" width="100%" y="0" x="0"/>
     <use xlink:href="#rect4594-3" transform="translate(0 9.5995)" height="100%" width="100%" y="0" x="0"/>
     <use xlink:href="#rect4594-3" transform="translate(4.7998 14.399)" height="100%" width="100%" y="0" x="0"/>
     <use xlink:href="#rect4594" transform="translate(9.5995)" height="100%" width="100%" y="0" x="0"/>
     <use xlink:href="#rect4594" transform="translate(4.7998 4.7998)" height="100%" width="100%" y="0" x="0"/>
     <use xlink:href="#rect4594" transform="translate(9.5995 9.5995)" height="100%" width="100%" y="0" x="0"/>
    </g>
   </g>
  </g>
  <g>
   <path d="m20.902 14.717v-4.23q0-0.565 0.2136-1.068 0.22049-0.50987 0.59945-0.88883 0.38585-0.38585 0.90262-0.62012 0.51676-0.23427 1.1093-0.24805h4.2306q0.565 0 1.068 0.22049 0.50987 0.22049 0.88884 0.59945 0.38585 0.37896 0.61323 0.89572 0.23427 0.51676 0.25494 1.1093h-1.4125q0-0.59256-0.41341-0.99908-0.40652-0.41341-0.99908-0.41341h-4.2306q-0.59256 0-1.006 0.41341-0.40652 0.40652-0.40652 0.99908v4.2306q0 0.59256 0.40652 1.006 0.41341 0.40652 1.006 0.40652h4.2306q0.59256 0 0.99908-0.40652 0.41341-0.41341 0.41341-1.006h1.4125q0 0.565-0.22049 1.0749-0.22049 0.50987-0.60634 0.89572-0.37896 0.38585-0.89572 0.62012-0.50987 0.23427-1.1024 0.23427h-4.2306q-0.565 0-1.0818-0.2136-0.51676-0.22049-0.90951-0.59945-0.38585-0.38585-0.61323-0.90262-0.22049-0.51676-0.22049-1.1093z"/>
   <path d="m31.899 17.542v-7.055q0-0.565 0.22049-1.068 0.221-0.51 0.6-0.8959 0.379-0.3927 0.895-0.627 0.517-0.2343 1.11-0.2343h4.2306q0.565 0 1.0749 0.22049 0.50987 0.22049 0.88884 0.59945 0.37896 0.37896 0.61323 0.89572t0.24805 1.1093v7.0556h-1.4125v-2.825h-7.0556v2.825zm1.4125-4.2306h7.0556v-2.824q0-0.59256-0.41341-0.99908-0.408-0.4136-1.001-0.4136h-4.2306q-0.59256 0-1.006 0.41341-0.40652 0.40652-0.40652 0.99908z"/>
   <path d="m43.199 17.542v-9.8802h9.8805v9.8805h-1.413v-8.4677h-7.056v8.468z"/>
   <path d="m54.499 17.542v-9.8802h7.0556q0.565 0 1.0749 0.22049 0.50987 0.22049 0.88884 0.59945 0.37896 0.37896 0.61323 0.89572t0.24805 1.1093v1.4125q0 0.565-0.22049 1.0749-0.2136 0.50298-0.59945 0.89572-0.37896 0.38585-0.89572 0.62012-0.51676 0.22738-1.1093 0.22738h-5.6431v2.825zm1.4125-4.2306h5.6431q0.59256 0 0.99908-0.40652 0.41341-0.41341 0.41341-1.006v-1.411q0-0.59256-0.41341-0.99908-0.40652-0.41341-0.99908-0.41341h-5.6431z"/>
   <path d="m20.902 3.9417v-0.678q0-0.17363 0.06615-0.3266 0.06821-0.15503 0.1819-0.26872 0.11576-0.11576 0.27078-0.1819 0.15503-0.068213 0.32866-0.068213h0.59118v-0.4238h0.42375v0.42375h0.59325q0.17363 0 0.3266 0.068213 0.15503 0.066146 0.26872 0.1819 0.11576 0.11369 0.1819 0.26872 0.06821 0.15296 0.06821 0.3266v0.67799q0 0.17363-0.06821 0.32866-0.06615 0.15503-0.1819 0.26872-0.11369 0.11369-0.26872 0.1819-0.15296 0.068213-0.3266 0.068213h-0.59325v0.4217h-0.423v-0.4216h-0.59118q-0.17777 0-0.3328-0.066146-0.155-0.0662-0.271-0.1799-0.114-0.1137-0.18-0.2687-0.064-0.1551-0.064-0.3328zm0.42375 0q0 0.17777 0.12196 0.30179 0.12402 0.12196 0.30179 0.12196h0.59118v-1.5234h-0.59118q-0.17777 0-0.30179 0.12196-0.12196 0.12196-0.12196 0.29972zm1.4387 0.42375h0.59325q0.17777 0 0.29972-0.12196 0.12402-0.12402 0.12402-0.30179v-0.6779q0-0.17777-0.12402-0.29972-0.12196-0.12196-0.29972-0.12196h-0.59325z"/>
   <path d="m24.581 5.0847v-2.9642h2.5404v0.42375h-2.1167v2.5404z"/>
   <path d="m27.335 5.0847v-2.9642h2.5404v0.42375h-2.1167v0.70693h1.6929q0.1695 0 0.32246 0.066146t0.26665 0.17983q0.11369 0.11369 0.18397 0.26872t0.07441 0.3328v0.1387q0 0.1695-0.06615 0.32246-0.06408 0.15296-0.17983 0.26872-0.11369 0.11576-0.26872 0.18604t-0.3328 0.07028zm0.42375-0.42375h1.6929q0.17777 0 0.29972-0.12196 0.12402-0.12402 0.12402-0.30179v-0.1384q0-0.17777-0.12402-0.29972-0.12196-0.12402-0.29972-0.12402h-1.6929z"/>
   <path d="m30.592 4.2373v-1.2692q0-0.17363 0.06614-0.3266 0.06821-0.15503 0.1819-0.26872 0.11576-0.11576 0.27078-0.18397 0.15503-0.068213 0.32866-0.068213h1.2692q0.1695 0 0.32039 0.068213 0.15296 0.068213 0.26872 0.18397 0.11782 0.11369 0.1881 0.26872 0.07028 0.15296 0.07028 0.3266v1.2692q0 0.17363-0.06821 0.32866t-0.18397 0.26872q-0.11369 0.11369-0.26872 0.1819-0.15296 0.068213-0.3266 0.068213h-1.268q-0.17777 0-0.3328-0.064079-0.155-0.0662-0.271-0.1799-0.113-0.1157-0.179-0.2708-0.065-0.155-0.065-0.3327zm0.42375 0q0 0.17777 0.12196 0.30179 0.12402 0.12196 0.30179 0.12196h1.2692q0.17777 0 0.29972-0.12196 0.124-0.124 0.124-0.3017v-1.2692q0-0.17777-0.12402-0.29972-0.122-0.1241-0.3-0.1241h-1.269q-0.17777 0-0.30179 0.12402-0.12196 0.12196-0.12196 0.29972z"/>
   <path d="m33.891 2.9681v-0.8475h0.42375v0.84749q0 0.17777 0.12196 0.30179 0.12402 0.12196 0.30179 0.12196h1.6929v-1.2712h0.424v2.1167q0 0.1695-0.06615 0.32246-0.06614 0.15296-0.1819 0.26872-0.11369 0.11576-0.26872 0.18604-0.15296 0.07028-0.33073 0.07028h-1.1865q-0.17363 0-0.3266-0.064079-0.151-0.0662-0.267-0.1799-0.113-0.1157-0.182-0.2708-0.066-0.155-0.07-0.3327h0.42375q0 0.17777 0.12196 0.30179 0.12196 0.12196 0.29972 0.12196h1.1865q0.17777 0 0.29972-0.12196 0.12402-0.12402 0.12402-0.30179v-0.4216h-1.6929q-0.1695 0-0.32453-0.066146t-0.27285-0.17983q-0.116-0.1137-0.184-0.2687-0.067-0.1551-0.067-0.3328z"/>
   <path d="m38.968 5.0847v-2.9642h2.1167q0.16536 0 0.32039 0.066146t0.27078 0.17983q0.11576 0.11369 0.18604 0.26872t0.07028 0.3328q0 0.38034-0.28732 0.63459 0.28732 0.25425 0.28732 0.63459 0 0.17363-0.06615 0.32453-0.06408 0.1509-0.17983 0.26458-0.11369 0.11369-0.26872 0.18397t-0.3328 0.074414zm0.42375-0.42375h1.6929q0.17777 0 0.29972-0.12196 0.12402-0.12402 0.12402-0.30179t-0.12402-0.29972q-0.12196-0.12196-0.29972-0.12196h-1.6929zm0-1.2692h1.6929q0.17777 0 0.29972-0.12196 0.12402-0.12402 0.12402-0.30179t-0.12402-0.29972q-0.12196-0.12402-0.29972-0.12402h-1.6929z"/>
   <path d="m42.267 4.2373v-1.2692q0-0.17363 0.06615-0.3266 0.06821-0.15503 0.1819-0.26872 0.11576-0.11576 0.27078-0.18397 0.15503-0.068213 0.32866-0.068213h1.2692q0.1695 0 0.32039 0.068213 0.15296 0.068213 0.26872 0.18397 0.11782 0.11369 0.1881 0.26872 0.07028 0.15296 0.07028 0.3266v1.2692q0 0.17363-0.06821 0.32866t-0.18397 0.26872q-0.11369 0.11369-0.26872 0.1819-0.15296 0.068213-0.3266 0.068213h-1.2692q-0.17777 0-0.3328-0.064079-0.153-0.0662-0.269-0.1799-0.114-0.1157-0.18-0.2708-0.064-0.155-0.064-0.3327zm0.42375 0q0 0.17777 0.12196 0.30179 0.12402 0.12196 0.30179 0.12196h1.2692q0.17777 0 0.29972-0.12196 0.12402-0.12402 0.12402-0.30179v-1.2691q0-0.17777-0.12402-0.29972-0.12196-0.12402-0.29972-0.12402h-1.2692q-0.17777 0-0.30179 0.12402-0.12196 0.12196-0.12196 0.29972z"/>
   <path d="m47.176 3.9045v-0.17777l1.1844-1.1824h0.10335l0.1943 0.1943v0.10749l-0.96945 0.96945 0.96945 0.96945v0.1054l-0.1943 0.1943h-0.10335zm1.0108 0v-0.17777l0.93638-0.92811h0.10129l0.1943 0.1943v0.10542l-0.71934 0.71727 0.71934 0.7152v0.1054l-0.1943 0.1943h-0.10129z"/>
   <path d="m49.506 2.5443v-0.4237h2.9642v0.4237h-1.271v2.5404h-0.424v-2.5404z"/>
   <path d="m52.677 5.0847v-2.9642h2.5404v0.42375h-2.1167v2.5404z"/>
   <path d="m55.219 2.5443v-0.4237h2.9642v0.42375h-1.2712v2.5403h-0.423v-2.5404z"/>
   <path d="m58.349 2.9681v-0.8475h0.42375v0.84749q0 0.17777 0.12196 0.30179 0.12402 0.12196 0.30179 0.12196h1.6929v-1.2712h0.42375v2.1167q0 0.1695-0.06615 0.32246t-0.1819 0.26872q-0.11369 0.11576-0.26872 0.18604-0.15296 0.07028-0.33073 0.07028h-1.1865q-0.17363 0-0.3266-0.064079-0.151-0.0662-0.267-0.1799-0.114-0.1157-0.182-0.2708-0.066-0.155-0.07-0.3327h0.42375q0 0.17777 0.12196 0.30179 0.12196 0.12196 0.29972 0.12196h1.1865q0.17777 0 0.29972-0.12196 0.12402-0.12402 0.12402-0.30179v-0.4216h-1.6929q-0.1695 0-0.32453-0.066146t-0.27285-0.17983q-0.11576-0.11369-0.18397-0.26872-0.06614-0.15503-0.06614-0.3328z"/>
   <path d="m61.605 4.6362v-0.1054l0.719-0.7152-0.719-0.7173v-0.10542l0.1943-0.1943h0.10129l0.93638 0.92811v0.17777l-0.93638 0.92604h-0.10129zm0.76274 0.25425v-0.1054l0.96945-0.96945-0.96945-0.96945v-0.10749l0.1943-0.1943h0.10129l1.1844 1.1824v0.17777l-1.1844 1.1803h-0.10129z"/>
  </g>
 </g>
</svg>
